<?xml version="1.0" encoding="utf-8"?>
<!-- Generator: Adobe Illustrator 27.5.0, SVG Export Plug-In . SVG Version: 6.00 Build 0)  -->
<svg version="1.1" id="Ñëîé_1" xmlns="http://www.w3.org/2000/svg" xmlns:xlink="http://www.w3.org/1999/xlink" x="0px" y="0px"
	 viewBox="0 0 3840 2160" style="enable-background:new 0 0 3840 2160;" xml:space="preserve">
<g>
	<defs>
		<rect id="SVGID_1_" width="3840" height="2160"/>
	</defs>
	<clipPath id="SVGID_00000016077415549691478640000008786705299664771234_">
		<use xlink:href="#SVGID_1_"  style="overflow:visible;"/>
	</clipPath>
	
		<radialGradient id="SVGID_00000061439786161345903130000013856177310721799299_" cx="1920" cy="1080" r="2425.2307" fx="-152.1719" fy="2340.0984" gradientUnits="userSpaceOnUse">
		<stop  offset="0" style="stop-color:#001A6D"/>
		<stop  offset="0.0333" style="stop-color:#001867"/>
		<stop  offset="0.2936" style="stop-color:#000B3C"/>
		<stop  offset="0.4967" style="stop-color:#000321"/>
		<stop  offset="0.6164" style="stop-color:#000017"/>
	</radialGradient>
	
		<rect style="clip-path:url(#SVGID_00000016077415549691478640000008786705299664771234_);fill:url(#SVGID_00000061439786161345903130000013856177310721799299_);" width="3840" height="2160"/>
	<g style="clip-path:url(#SVGID_00000016077415549691478640000008786705299664771234_);">
		<path style="fill:#007AFF;" d="M1752.33,1323.546c2.377,0,4.304,1.927,4.304,4.304c0,2.377-1.927,4.304-4.304,4.304
			s-4.304-1.927-4.304-4.304C1748.026,1325.473,1749.953,1323.546,1752.33,1323.546z"/>
		
			<ellipse transform="matrix(0.0126 -0.9999 0.9999 0.0126 -1906.9098 2288.8804)" style="fill:#007AFF;" cx="205.539" cy="2110.02" rx="4.331" ry="4.331"/>
		<path style="fill:#007AFF;" d="M599.6,2039.294c2.456,0,4.446,1.991,4.446,4.446s-1.991,4.446-4.446,4.446
			s-4.446-1.99-4.446-4.446S597.144,2039.294,599.6,2039.294z"/>
		<path style="fill:#007AFF;" d="M489.49,1302.69c2.474,0,4.48,2.006,4.48,4.48s-2.006,4.48-4.48,4.48
			c-2.474,0-4.48-2.006-4.48-4.48S487.016,1302.69,489.49,1302.69z"/>
		<path style="fill:#007AFF;" d="M1369.09,1558.442c2.484,0,4.498,2.014,4.498,4.498s-2.014,4.498-4.498,4.498
			s-4.498-2.014-4.498-4.498S1366.606,1558.442,1369.09,1558.442z"/>
		<path style="fill:#007AFF;" d="M1965.54,1947.861c2.557,0,4.629,2.073,4.629,4.629s-2.073,4.629-4.629,4.629
			s-4.629-2.073-4.629-4.629S1962.984,1947.861,1965.54,1947.861z"/>
		<path style="fill:#007AFF;" d="M144.145,1788.823c2.561,0,4.637,2.076,4.637,4.637s-2.076,4.637-4.637,4.637
			c-2.561,0-4.637-2.076-4.637-4.637S141.584,1788.823,144.145,1788.823z"/>
		<path style="fill:#007AFF;" d="M378.116,1335.053c2.566,0,4.647,2.081,4.647,4.647c0,2.567-2.081,4.647-4.647,4.647
			s-4.647-2.08-4.647-4.647C373.469,1337.134,375.55,1335.053,378.116,1335.053z"/>
		
			<ellipse transform="matrix(0.0381 -0.9993 0.9993 0.0381 -1066.8083 1479.4758)" style="fill:#007AFF;" cx="235.052" cy="1293.85" rx="4.702" ry="4.702"/>
		<path style="fill:#007AFF;" d="M519.712,2102.673c2.605,0,4.717,2.112,4.717,4.717s-2.112,4.717-4.717,4.717
			c-2.605,0-4.717-2.112-4.717-4.717S517.107,2102.673,519.712,2102.673z"/>
		<path style="fill:#007AFF;" d="M1062.79,994.283c2.621,0,4.745,2.124,4.745,4.745c0,2.621-2.125,4.745-4.745,4.745
			s-4.745-2.124-4.745-4.745C1058.045,996.407,1060.169,994.283,1062.79,994.283z"/>
		<path style="fill:#007AFF;" d="M1605.61,2064.759c2.646,0,4.791,2.145,4.791,4.791s-2.145,4.791-4.791,4.791
			s-4.791-2.145-4.791-4.791S1602.964,2064.759,1605.61,2064.759z"/>
		<path style="fill:#007AFF;" d="M706.329,2029.802c2.666,0,4.828,2.161,4.828,4.828s-2.162,4.828-4.828,4.828
			c-2.667,0-4.828-2.161-4.828-4.828S703.662,2029.802,706.329,2029.802z"/>
		<circle style="fill:#007AFF;" cx="1095.27" cy="1814.1" r="4.861"/>
		<path style="fill:#007AFF;" d="M307.63,1946.686c2.687,0,4.865,2.178,4.865,4.865s-2.178,4.865-4.865,4.865
			c-2.687,0-4.865-2.178-4.865-4.865S304.943,1946.686,307.63,1946.686z"/>
		<path style="fill:#007AFF;" d="M1105.23,1793.092c2.738,0,4.958,2.22,4.958,4.958s-2.22,4.958-4.958,4.958
			s-4.958-2.22-4.958-4.958S1102.492,1793.092,1105.23,1793.092z"/>
		<circle style="fill:#007AFF;" cx="399.862" cy="1452.94" r="5"/>
		<path style="fill:#007AFF;" d="M469.806,1934.522c2.766,0,5.008,2.242,5.008,5.008s-2.242,5.008-5.008,5.008
			s-5.008-2.242-5.008-5.008S467.04,1934.522,469.806,1934.522z"/>
		<circle style="fill:#007AFF;" cx="1013.2" cy="1202.57" r="5.086"/>
		<circle style="fill:#007AFF;" cx="1309.27" cy="1537.02" r="5.257"/>
		<circle style="fill:#007AFF;" cx="309.868" cy="1250.12" r="5.323"/>
		<path style="fill:#007AFF;" d="M368.995,2158.503c3.025,0,5.477,2.452,5.477,5.477s-2.452,5.477-5.477,5.477
			c-3.025,0-5.477-2.452-5.477-5.477S365.97,2158.503,368.995,2158.503z"/>
		<circle style="fill:#007AFF;" cx="-1.909" cy="702.109" r="5.499"/>
		<path style="fill:#007AFF;" d="M1334.04,1250.909c3.06,0,5.541,2.481,5.541,5.541s-2.481,5.541-5.541,5.541
			s-5.541-2.481-5.541-5.541S1330.98,1250.909,1334.04,1250.909z"/>
		
			<ellipse transform="matrix(0.1372 -0.9905 0.9905 0.1372 -937.8454 2447.4231)" style="fill:#007AFF;" cx="936.016" cy="1762.08" rx="5.711" ry="5.711"/>
		<path style="fill:#007AFF;" d="M186.863,605.637c3.282,0,5.942,2.66,5.942,5.942c0,3.282-2.66,5.942-5.942,5.942
			c-3.282,0-5.942-2.66-5.942-5.942C180.921,608.297,183.581,605.637,186.863,605.637z"/>
		<path style="fill:#007AFF;" d="M542.393,1397.421c3.291,0,5.959,2.668,5.959,5.959s-2.668,5.959-5.959,5.959
			c-3.291,0-5.959-2.668-5.959-5.959S539.102,1397.421,542.393,1397.421z"/>
		<path style="fill:#007AFF;" d="M845.601,2040.304c3.295,0,5.966,2.671,5.966,5.966s-2.671,5.966-5.966,5.966
			s-5.966-2.671-5.966-5.966S842.306,2040.304,845.601,2040.304z"/>
		<path style="fill:#007AFF;" d="M889.703,1499.139c3.336,0,6.041,2.704,6.041,6.041c0,3.336-2.704,6.041-6.041,6.041
			c-3.336,0-6.041-2.704-6.041-6.041C883.662,1501.844,886.367,1499.139,889.703,1499.139z"/>
		<path style="fill:#007AFF;" d="M562.359,1021.871c3.346,0,6.059,2.713,6.059,6.059s-2.713,6.059-6.059,6.059
			c-3.346,0-6.059-2.713-6.059-6.059S559.013,1021.871,562.359,1021.871z"/>
		<path style="fill:#007AFF;" d="M287.511,1505.292c3.379,0,6.118,2.739,6.118,6.118s-2.739,6.118-6.118,6.118
			s-6.118-2.739-6.118-6.118S284.132,1505.292,287.511,1505.292z"/>
		<circle style="fill:#007AFF;" cx="1170.11" cy="1692.56" r="6.31"/>
		
			<ellipse transform="matrix(0.3039 -0.9527 0.9527 0.3039 -1037.8137 2132.3921)" style="fill:#007AFF;" cx="940.326" cy="1776.39" rx="6.326" ry="6.326"/>
		<circle style="fill:#007AFF;" cx="67.715" cy="1429.22" r="6.614"/>
		<circle style="fill:#007AFF;" cx="241.699" cy="627.657" r="6.965"/>
		<path style="fill:#007AFF;" d="M1815.28,1735.567c3.851,0,6.973,3.122,6.973,6.973s-3.122,6.973-6.973,6.973
			s-6.973-3.122-6.973-6.973S1811.429,1735.567,1815.28,1735.567z"/>
		<circle style="fill:#007AFF;" cx="133.808" cy="1846.59" r="7.145"/>
		
			<ellipse transform="matrix(0.1285 -0.9917 0.9917 0.1285 -693.1241 2255.4309)" style="fill:#007AFF;" cx="936.703" cy="1522.08" rx="7.841" ry="7.841"/>
		<circle style="fill:#007AFF;" cx="-1.69" cy="1957.48" r="8.239"/>
		
			<ellipse transform="matrix(0.6592 -0.7519 0.7519 0.6592 -486.7677 474.9938)" style="fill:#007AFF;" cx="280.684" cy="774.555" rx="8.746" ry="8.746"/>
		<path style="fill:#007AFF;fill-opacity:0.609;" d="M-111.014,2409.57l317.345-298.71c0.452-0.45,0.454-1.181,0.005-1.633
			c-0.433-0.436-1.131-0.456-1.589-0.047l-317.352,298.7c-0.455,0.451-0.459,1.187-0.007,1.642
			C-112.177,2409.961-111.475,2409.982-111.014,2409.57z"/>
		<path style="fill:#007AFF;fill-opacity:0.6778;" d="M979.36,2209.11l-379.283-166.45c-0.609-0.242-1.298,0.055-1.54,0.664
			c-0.23,0.578,0.026,1.236,0.587,1.506l379.315,166.38c0.58,0.254,1.256-0.01,1.51-0.589
			C980.204,2210.041,979.94,2209.365,979.36,2209.11L979.36,2209.11z"/>
		<path style="fill:#007AFF;fill-opacity:0.5444;" d="M205.731,2111.16l394.066-66.25c0.646-0.109,1.082-0.72,0.974-1.367
			c-0.109-0.646-0.72-1.082-1.367-0.974l-394.057,66.31c-0.63,0.106-1.054,0.702-0.948,1.332S205.101,2111.266,205.731,2111.16z"/>
		<path style="fill:#007AFF;fill-opacity:0.5668;" d="M1369.72,1563.96l383.21-235.13c0.541-0.331,0.711-1.039,0.38-1.58
			c-0.331-0.541-1.039-0.711-1.58-0.38l-383.27,235.05c-0.552,0.366-0.703,1.11-0.337,1.662
			C1368.473,1564.11,1369.171,1564.275,1369.72,1563.96z"/>
		<path style="fill:#007AFF;fill-opacity:0.3687;" d="M-369.399,2321.37l575.334-210.27c0.599-0.219,0.908-0.882,0.689-1.481
			c-0.219-0.599-0.882-0.908-1.481-0.689l-575.379,210.15c-0.625,0.25-0.929,0.96-0.679,1.586
			C-370.675,2321.264-370.011,2321.573-369.399,2321.37z"/>
		<path style="fill:#007AFF;" d="M186.92,2170.16l19.715-59.78c0.169-0.615-0.192-1.251-0.807-1.42
			c-0.573-0.158-1.173,0.145-1.385,0.7l-19.845,59.74c-0.178,0.652,0.206,1.324,0.858,1.502
			C186.062,2171.067,186.695,2170.747,186.92,2170.16z"/>
		<path style="fill:#007AFF;fill-opacity:0.6599;" d="M142.931,1793.7l61.474,316.54c0.121,0.626,0.728,1.035,1.354,0.914
			c0.626-0.122,1.035-0.728,0.914-1.354l0,0l-61.314-316.57c-0.138-0.669-0.793-1.099-1.461-0.961
			C143.241,1792.405,142.812,1793.04,142.931,1793.7z"/>
		<path style="fill:#007AFF;fill-opacity:0.4953;" d="M979.15,2209.04l-459.164-102.87c-0.686-0.11-1.331,0.356-1.442,1.042
			c-0.101,0.628,0.282,1.232,0.893,1.408l459.212,102.65c0.625,0.099,1.211-0.326,1.311-0.951
			C980.05,2209.75,979.703,2209.202,979.15,2209.04z"/>
		<path style="fill:#007AFF;fill-opacity:0.7798;" d="M186.115,2170.95l413.831-126.07c0.627-0.191,0.98-0.854,0.789-1.48
			s-0.854-0.98-1.48-0.79l0,0l-413.852,126c-0.642,0.209-0.993,0.9-0.784,1.542C184.823,2170.776,185.483,2171.129,186.115,2170.95z
			"/>
		<path style="fill:#007AFF;fill-opacity:0.5758;" d="M979.519,2209.19l-272.492-175.64c-0.617-0.353-1.404-0.139-1.757,0.479
			c-0.326,0.571-0.17,1.296,0.362,1.681l272.648,175.41c0.533,0.342,1.242,0.188,1.585-0.346
			C980.207,2210.241,980.052,2209.532,979.519,2209.19L979.519,2209.19z"/>
		<path style="fill:#007AFF;fill-opacity:0.2532;" d="M488.516,1306.48l-345.379,486.27c-0.381,0.567-0.231,1.335,0.335,1.716
			c0.547,0.368,1.287,0.242,1.682-0.286l345.31-486.31c0.384-0.538,0.259-1.285-0.279-1.669
			C489.647,1305.817,488.9,1305.942,488.516,1306.48L488.516,1306.48z"/>
		<path style="fill:#007AFF;" d="M489.155,1306.03l-111.386,32.48c-0.657,0.192-1.034,0.88-0.843,1.537
			c0.192,0.657,0.88,1.034,1.538,0.843l111.361-32.57c0.622-0.219,0.949-0.901,0.73-1.524
			C490.352,1306.221,489.749,1305.891,489.155,1306.03z"/>
		<path style="fill:#007AFF;" d="M520.495,2108.38l79.844-63.71c0.489-0.436,0.531-1.185,0.096-1.674
			c-0.403-0.452-1.081-0.527-1.574-0.176l-79.933,63.59c-0.544,0.433-0.634,1.225-0.201,1.769
			C519.159,2108.722,519.951,2108.813,520.495,2108.38L520.495,2108.38z"/>
		<path style="fill:#007AFF;" d="M489.552,1305.98l-254.435-13.38c-0.693,0.004-1.25,0.569-1.246,1.262
			c0.004,0.636,0.483,1.168,1.115,1.238l254.441,13.27c0.66,0.035,1.223-0.473,1.257-1.133
			C490.719,1306.578,490.212,1306.015,489.552,1305.98L489.552,1305.98z"/>
		<path style="fill:#007AFF;fill-opacity:0.6447;" d="M-225.188,1623.89l368.814,170.7c0.621,0.287,1.358,0.016,1.644-0.605
			c0.287-0.621,0.016-1.358-0.605-1.645l-368.833-170.65c-0.622-0.251-1.329,0.049-1.58,0.671
			C-225.982,1622.939-225.74,1623.6-225.188,1623.89z"/>
		<path style="fill:#007AFF;fill-opacity:0.8658;" d="M4.603,2411.28l201.895-300.62c0.356-0.53,0.215-1.248-0.314-1.604
			c-0.53-0.356-1.248-0.215-1.604,0.314L2.431,2409.82c-0.403,0.6-0.244,1.413,0.356,1.816S4.2,2411.88,4.603,2411.28L4.603,2411.28
			z"/>
		<path style="fill:#007AFF;fill-opacity:0.8036;" d="M186.975,2169.65l-41.601-376.32c-0.088-0.677-0.708-1.155-1.386-1.067
			c-0.659,0.086-1.132,0.676-1.072,1.337l41.627,376.31c0.084,0.67,0.695,1.146,1.365,1.062
			C186.562,2170.89,187.033,2170.306,186.975,2169.65z"/>
		<path style="fill:#007AFF;fill-opacity:0.0662;" d="M-223.971,1623.78l459.752-328.91c0.563-0.403,0.693-1.186,0.29-1.75
			c-0.403-0.563-1.186-0.693-1.749-0.291l-459.706,328.97c-0.547,0.39-0.674,1.15-0.283,1.697S-224.518,1624.17-223.971,1623.78z"/>
		<path style="fill:#007AFF;" d="M706.22,2033.35l-106.721,9.21c-0.649,0.088-1.104,0.685-1.016,1.334
			c0.082,0.604,0.609,1.048,1.218,1.026l106.738-9.01c0.703-0.107,1.186-0.764,1.079-1.467
			C707.421,2033.805,706.866,2033.337,706.22,2033.35z"/>
		<path style="fill:#007AFF;fill-opacity:0.2953;" d="M1606.77,2069.01l-236.59-506.58c-0.282-0.602-0.998-0.862-1.6-0.58
			s-0.862,0.998-0.58,1.6l0,0l236.45,506.64c0.298,0.641,1.059,0.918,1.7,0.62C1606.791,2070.412,1607.068,2069.651,1606.77,2069.01
			z"/>
		<path style="fill:#007AFF;fill-opacity:0.4287;" d="M377.015,1339.14L143.046,1792.9c-0.289,0.619-0.021,1.355,0.598,1.644
			c0.586,0.273,1.283,0.05,1.6-0.514l233.974-453.76c0.283-0.623,0.007-1.358-0.616-1.641
			C378.02,1338.365,377.333,1338.586,377.015,1339.14z"/>
		<path style="fill:#007AFF;fill-opacity:0.9683;" d="M307.239,1952.79l292.004,92.08c0.631,0.176,1.285-0.193,1.461-0.823
			c0.168-0.601-0.159-1.229-0.747-1.437l-291.936-92.3c-0.685-0.216-1.415,0.164-1.631,0.849
			C306.174,1951.844,306.554,1952.574,307.239,1952.79z"/>
		<path style="fill:#007AFF;fill-opacity:0.789;" d="M185.984,2170.98l333.959-62.35c0.676-0.16,1.094-0.837,0.935-1.513
			c-0.149-0.631-0.754-1.045-1.397-0.957l-333.947,62.42c-0.655,0.165-1.053,0.829-0.888,1.484
			C184.797,2170.664,185.371,2171.057,185.984,2170.98z"/>
		<path style="fill:#007AFF;fill-opacity:0.0474;" d="M488.34,1306.85L306.381,1951.2c-0.17,0.696,0.256,1.398,0.952,1.568
			c0.663,0.162,1.339-0.217,1.545-0.868l181.762-644.4c0.179-0.635-0.19-1.296-0.825-1.475
			C489.18,1305.846,488.52,1306.215,488.34,1306.85z"/>
		<path style="fill:#007AFF;fill-opacity:0.4164;" d="M233.818,1293.63l-90.889,499.61c-0.124,0.672,0.32,1.317,0.992,1.442
			c0.672,0.124,1.317-0.32,1.441-0.992l90.923-499.61c0.12-0.682-0.336-1.332-1.018-1.452
			C234.591,1292.509,233.945,1292.956,233.818,1293.63z"/>
		<path style="fill:#007AFF;fill-opacity:0.8899;" d="M1096.14,1815.05l273.76-251.23c0.452-0.484,0.426-1.243-0.059-1.695
			c-0.433-0.404-1.096-0.431-1.561-0.065l-273.89,251.08c-0.51,0.503-0.515,1.323-0.012,1.833
			C1094.854,1815.456,1095.623,1815.49,1096.14,1815.05z"/>
		<path style="fill:#007AFF;" d="M234.669,1295.04l143.069,45.84c0.656,0.195,1.346-0.18,1.54-0.836
			c0.189-0.636-0.157-1.308-0.785-1.524l-143.059-45.86c-0.674-0.161-1.35,0.255-1.51,0.929
			C233.781,1294.19,234.097,1294.806,234.669,1295.04z"/>
		<path style="fill:#007AFF;fill-opacity:0.0934;" d="M-572.977,2429.73l778.953-318.64c0.591-0.241,0.874-0.916,0.633-1.507
			c-0.241-0.591-0.916-0.875-1.507-0.633l-779.111,318.25c-0.699,0.285-1.034,1.082-0.749,1.781
			C-574.473,2429.68-573.676,2430.015-572.977,2429.73z"/>
		<path style="fill:#007AFF;fill-opacity:0.8618;" d="M1606.01,2070.77l359.91-117.11c0.629-0.263,0.926-0.986,0.662-1.615
			c-0.233-0.557-0.835-0.864-1.422-0.725l-359.94,117.02c-0.671,0.218-1.038,0.939-0.82,1.61
			C1604.618,2070.621,1605.339,2070.988,1606.01,2070.77L1606.01,2070.77z"/>
		<path style="fill:#007AFF;fill-opacity:0.8425;" d="M468.97,1940.57l129.888,104.1c0.511,0.41,1.258,0.328,1.668-0.182
			c0.41-0.511,0.328-1.258-0.183-1.668l0,0l-129.701-104.33c-0.594-0.438-1.43-0.312-1.868,0.282
			C468.362,1939.331,468.447,1940.113,468.97,1940.57z"/>
		<path style="fill:#007AFF;fill-opacity:0.8817;" d="M1368.29,1562.04l-263.94,235.03c-0.523,0.51-0.533,1.347-0.024,1.87
			c0.479,0.491,1.253,0.534,1.784,0.1l263.78-235.2c0.497-0.442,0.542-1.203,0.1-1.7S1368.787,1561.598,1368.29,1562.04z"/>
		<path style="fill:#007AFF;fill-opacity:0.8361;" d="M306.497,1950.92l-121.806,218.26c-0.331,0.59-0.122,1.337,0.468,1.668
			c0.59,0.331,1.337,0.122,1.668-0.468l121.936-218.2c0.323-0.639,0.068-1.42-0.572-1.743
			C307.587,1950.131,306.849,1950.341,306.497,1950.92z"/>
		<path style="fill:#007AFF;" d="M400.998,1453.64l89.51-145.84c0.336-0.568,0.149-1.3-0.419-1.637
			c-0.555-0.329-1.271-0.158-1.617,0.387l-89.746,145.69c-0.387,0.627-0.191,1.449,0.436,1.836
			C399.789,1454.463,400.611,1454.268,400.998,1453.64z"/>
		<path style="fill:#007AFF;fill-opacity:0.0174;" d="M488.296,1307.14l-19.825,632.35c-0.022,0.737,0.558,1.353,1.295,1.375
			s1.353-0.558,1.375-1.295l19.543-632.36c0.008-0.66-0.521-1.201-1.181-1.208C488.86,1305.994,488.326,1306.497,488.296,1307.14z"
			/>
		<path style="fill:#007AFF;" d="M308.532,1950.62l-163.527-158.04c-0.522-0.441-1.302-0.376-1.743,0.146
			c-0.399,0.471-0.388,1.164,0.024,1.624l163.442,158.13c0.54,0.471,1.359,0.416,1.831-0.124
			C308.995,1951.856,308.984,1951.107,308.532,1950.62z"/>
		<path style="fill:#007AFF;fill-opacity:0.2097;" d="M376.885,1339.56l-70.544,611.84c-0.083,0.712,0.427,1.356,1.139,1.439
			c0.712,0.083,1.356-0.427,1.439-1.139l70.428-611.85c0.08-0.68-0.406-1.296-1.086-1.376
			C377.581,1338.394,376.965,1338.88,376.885,1339.56L376.885,1339.56z"/>
		<path style="fill:#007AFF;" d="M520.168,2108.57l186.629-72.74c0.663-0.258,0.991-1.005,0.732-1.667
			c-0.258-0.663-1.005-0.991-1.667-0.732l-186.607,72.79c-0.649,0.252-0.971,0.983-0.719,1.632
			C518.789,2108.5,519.519,2108.822,520.168,2108.57z"/>
		<path style="fill:#007AFF;fill-opacity:0.2727;" d="M1369.95,1562.1l-355.79-360.48c-0.527-0.533-1.387-0.537-1.92-0.01
			c-0.533,0.528-0.537,1.387-0.01,1.92l0,0l356.01,360.25c0.482,0.455,1.241,0.432,1.696-0.049
			C1370.366,1563.274,1370.372,1562.564,1369.95,1562.1z"/>
		<path style="fill:#007AFF;fill-opacity:0.2823;" d="M186.529,2170.73l284.118-230.16c0.574-0.464,0.663-1.307,0.199-1.881
			c-0.465-0.574-1.307-0.663-1.881-0.199l-283.976,230.34c-0.515,0.437-0.579,1.209-0.142,1.724
			C185.27,2171.053,186.012,2171.131,186.529,2170.73z"/>
		<path style="fill:#007AFF;" d="M306.862,1952.59l212.105,155.82c0.56,0.411,1.348,0.29,1.76-0.271s0.29-1.348-0.271-1.76l0,0
			L308.398,1950.5c-0.589-0.408-1.397-0.261-1.805,0.328C306.201,1951.394,306.319,1952.167,306.862,1952.59z"/>
		<path style="fill:#007AFF;fill-opacity:0.4748;" d="M519.315,2108.59l452.85,150.68c0.689,0.205,1.414-0.187,1.62-0.877
			c0.196-0.658-0.153-1.356-0.798-1.593l-452.878-150.6c-0.66-0.219-1.373,0.138-1.592,0.798
			C518.298,2107.658,518.655,2108.371,519.315,2108.59z"/>
		<path style="fill:#007AFF;fill-opacity:0.4354;" d="M4.18,2411.68l516.169-303.2c0.599-0.352,0.8-1.123,0.448-1.722
			c-0.352-0.599-1.123-0.8-1.722-0.448L2.854,2409.43c-0.597,0.407-0.751,1.221-0.344,1.818
			C2.88,2411.79,3.594,2411.975,4.18,2411.68z"/>
		<path style="fill:#007AFF;fill-opacity:0.5191;" d="M143.639,1794.59l325.621,146.16c0.674,0.302,1.465,0,1.766-0.673
			c0.302-0.674,0-1.465-0.673-1.766l0,0l-325.702-145.97c-0.641-0.236-1.352,0.093-1.587,0.734
			C142.851,1793.652,143.097,1794.298,143.639,1794.59z"/>
		<path style="fill:#007AFF;" d="M401.171,1452.69l-21.838-113.22c-0.13-0.672-0.78-1.112-1.452-0.982
			c-0.672,0.13-1.112,0.78-0.982,1.452l21.654,113.25c0.161,0.719,0.874,1.171,1.592,1.01
			C400.832,1454.046,401.281,1453.385,401.171,1452.69z"/>
		<path style="fill:#007AFF;fill-opacity:0.3195;" d="M1606.18,2068.41l-510.33-255.47c-0.662-0.272-1.419,0.044-1.692,0.706
			c-0.244,0.593-0.018,1.275,0.532,1.604l510.35,255.44c0.651,0.272,1.399-0.034,1.672-0.685
			C1606.958,2069.415,1606.731,2068.734,1606.18,2068.41z"/>
		<path style="fill:#007AFF;fill-opacity:0.1036;" d="M1605.25,2068.33l-633.045,188.46c-0.674,0.252-1.015,1.002-0.763,1.676
			c0.228,0.61,0.871,0.957,1.506,0.814l633.032-188.5c0.677-0.202,1.062-0.913,0.86-1.59
			C1606.638,2068.513,1605.927,2068.128,1605.25,2068.33L1605.25,2068.33z"/>
		<path style="fill:#007AFF;fill-opacity:0.661;" d="M1094.63,1812.97l-388.936,220.54c-0.619,0.351-0.836,1.137-0.484,1.755
			s1.137,0.835,1.756,0.484l388.945-220.53c0.603-0.386,0.778-1.188,0.391-1.791
			C1095.943,1812.871,1095.223,1812.673,1094.63,1812.97z"/>
		<path style="fill:#007AFF;fill-opacity:0.9998;" d="M400.788,1451.98l-164.865-159.03c-0.52-0.458-1.312-0.407-1.77,0.113
			c-0.427,0.485-0.415,1.216,0.028,1.687l164.755,159.15c0.53,0.511,1.375,0.496,1.886-0.034
			C401.333,1453.336,401.318,1452.491,400.788,1451.98L400.788,1451.98z"/>
		<path style="fill:#007AFF;fill-opacity:0.8304;" d="M307.365,1952.82l398.702,83.07c0.7,0.127,1.37-0.337,1.497-1.036
			c0.123-0.674-0.305-1.327-0.972-1.484l-398.697-83.09c-0.703-0.14-1.386,0.315-1.526,1.018
			C306.23,1951.992,306.673,1952.669,307.365,1952.82z"/>
		<path style="fill:#007AFF;fill-opacity:0.7449;" d="M1308.71,1538.31l59.9,25.73c0.608,0.265,1.315-0.013,1.58-0.62
			c0.265-0.608-0.013-1.315-0.62-1.58l0,0l-59.74-26.1c-0.715-0.297-1.536,0.043-1.832,0.758
			C1307.709,1537.195,1308.024,1537.996,1308.71,1538.31z"/>
		<path style="fill:#007AFF;fill-opacity:0.9724;" d="M705.502,2035.62l266.237,223.41c0.575,0.432,1.392,0.315,1.823-0.26
			c0.398-0.531,0.334-1.275-0.149-1.73l-266.256-223.4c-0.547-0.457-1.36-0.384-1.818,0.162
			C704.883,2034.349,704.955,2035.163,705.502,2035.62z"/>
		<path style="fill:#007AFF;" d="M520.917,2107.04l-49.831-167.89c-0.224-0.703-0.975-1.091-1.678-0.867
			c-0.683,0.218-1.072,0.936-0.882,1.627l49.98,167.84c0.224,0.657,0.939,1.009,1.596,0.784
			C520.721,2108.323,521.075,2107.674,520.917,2107.04z"/>
		<path style="fill:#007AFF;fill-opacity:0.6136;" d="M489.852,1306.04l-179.554-57.27c-0.76-0.191-1.531,0.271-1.722,1.032
			c-0.174,0.694,0.196,1.409,0.863,1.668l179.689,56.84c0.642,0.153,1.286-0.244,1.439-0.886
			C490.704,1306.85,490.4,1306.261,489.852,1306.04z"/>
		<path style="fill:#007AFF;fill-opacity:0.272;" d="M-459.865,1202.78l694.751,92.31c0.691,0.045,1.288-0.479,1.332-1.17
			c0.04-0.625-0.387-1.185-1.001-1.31l-694.727-92.5c-0.737-0.098-1.414,0.42-1.512,1.158
			C-461.121,1202.005-460.602,1202.682-459.865,1202.78z"/>
		<path style="fill:#007AFF;fill-opacity:0.6712;" d="M1094.02,1813.75l-122.699,443.94c-0.168,0.699,0.263,1.402,0.962,1.57
			c0.667,0.16,1.344-0.225,1.548-0.88l122.689-443.94c0.191-0.69-0.215-1.404-0.905-1.595S1094.211,1813.06,1094.02,1813.75z"/>
		<path style="fill:#007AFF;fill-opacity:0.3236;" d="M1606.22,2068.43l-500.36-271.54c-0.66-0.312-1.448-0.029-1.76,0.632
			c-0.287,0.608-0.072,1.334,0.5,1.688l500.4,271.46c0.638,0.301,1.399,0.028,1.7-0.61
			C1606.977,2069.473,1606.771,2068.772,1606.22,2068.43z"/>
		<path style="fill:#007AFF;fill-opacity:0.443;" d="M4.608,2411.28l304.103-459.02c0.373-0.612,0.18-1.41-0.432-1.783
			c-0.58-0.354-1.336-0.2-1.731,0.353l-304.122,459c-0.4,0.603-0.237,1.415,0.366,1.816
			C3.395,2412.046,4.207,2411.883,4.608,2411.28L4.608,2411.28z"/>
		<path style="fill:#007AFF;fill-opacity:0.5373;" d="M1104.56,1796.92l-398.887,236.6c-0.613,0.363-0.816,1.153-0.453,1.766
			s1.154,0.816,1.767,0.453l0,0l398.924-236.55c0.608-0.404,0.774-1.225,0.37-1.833
			C1105.904,1796.791,1105.16,1796.602,1104.56,1796.92z"/>
		<path style="fill:#007AFF;" d="M1096.37,1814.78l9.98-16.03c0.358-0.636,0.133-1.443-0.503-1.801
			c-0.596-0.335-1.349-0.162-1.737,0.401l-9.95,16.06c-0.378,0.61-0.19,1.412,0.42,1.79
			C1095.19,1815.578,1095.992,1815.39,1096.37,1814.78L1096.37,1814.78z"/>
		<path style="fill:#007AFF;" d="M1061.56,998.729l-49.68,203.521c-0.129,0.738,0.365,1.441,1.103,1.569
			c0.67,0.117,1.323-0.28,1.527-0.929l49.51-203.562c0.165-0.679-0.251-1.364-0.931-1.529
			C1062.41,997.633,1061.725,998.05,1061.56,998.729L1061.56,998.729z"/>
		<path style="fill:#007AFF;" d="M-163.302,1777.42l307.377,17.28c0.682,0.039,1.266-0.483,1.305-1.165
			c0.039-0.682-0.483-1.266-1.165-1.305l-307.36-17.59c-0.768-0.043-1.425,0.544-1.468,1.312
			C-164.657,1776.719-164.07,1777.377-163.302,1777.42z"/>
		<path style="fill:#007AFF;" d="M706.81,2033.44l-236.506-95.15c-0.685-0.275-1.463,0.057-1.738,0.742
			c-0.275,0.685,0.057,1.463,0.742,1.738l236.541,95.06c0.66,0.265,1.41-0.055,1.675-0.714
			C707.79,2034.455,707.47,2033.705,706.81,2033.44z"/>
		<path style="fill:#007AFF;fill-opacity:0.5611;" d="M1103.96,1797.69l-132.635,459.99c-0.18,0.696,0.238,1.407,0.935,1.587
			c0.67,0.173,1.358-0.208,1.567-0.867l132.673-459.98c0.179-0.708-0.25-1.427-0.958-1.606
			C1104.866,1796.644,1104.174,1797.027,1103.96,1797.69z"/>
		<path style="fill:#007AFF;fill-opacity:0.4484;" d="M398.551,1452.7l-92.197,498.61c-0.13,0.705,0.336,1.381,1.041,1.511
			s1.381-0.336,1.511-1.041l0,0l92.267-498.59c0.135-0.724-0.342-1.421-1.066-1.556
			C399.383,1451.499,398.686,1451.976,398.551,1452.7L398.551,1452.7z"/>
		<path style="fill:#007AFF;fill-opacity:0.2555;" d="M1095.01,1812.82l-625.467,125.4c-0.724,0.145-1.192,0.849-1.047,1.573
			c0.145,0.724,0.849,1.192,1.573,1.047l625.451-125.47c0.704-0.141,1.161-0.826,1.02-1.53S1095.714,1812.679,1095.01,1812.82z"/>
		<path style="fill:#007AFF;" d="M307.726,1952.84l162.179-11.98c0.732-0.093,1.25-0.761,1.157-1.493
			c-0.086-0.679-0.671-1.183-1.355-1.167l-162.173,12.05c-0.715,0.053-1.252,0.676-1.199,1.391
			C306.388,1952.356,307.011,1952.893,307.726,1952.84z"/>
		<path style="fill:#007AFF;fill-opacity:0.8326;" d="M308.739,1250.98l68.391,89.47c0.43,0.532,1.21,0.615,1.743,0.185
			c0.511-0.413,0.611-1.152,0.229-1.685l-68.105-89.69c-0.485-0.615-1.378-0.721-1.994-0.236
			C308.403,1249.498,308.286,1250.363,308.739,1250.98z"/>
		<path style="fill:#007AFF;fill-opacity:0.0686;" d="M1370.28,1562.8l-34.77-306.52c-0.145-0.803-0.913-1.337-1.716-1.192
			c-0.729,0.131-1.248,0.782-1.214,1.522l35.32,306.47c0.107,0.654,0.724,1.097,1.378,0.989
			C1369.89,1563.969,1370.324,1563.418,1370.28,1562.8z"/>
		<path style="fill:#007AFF;fill-opacity:0.7715;" d="M663.699,2386.19l-142.867-279.37c-0.318-0.619-1.077-0.863-1.695-0.546
			c-0.619,0.318-0.863,1.077-0.545,1.696l0,0l142.618,279.49c0.372,0.677,1.222,0.924,1.899,0.552
			C663.755,2387.656,664.014,2386.858,663.699,2386.19z"/>
		<path style="fill:#007AFF;fill-opacity:0.094;" d="M1061.64,999.555l246.35,538.055c0.323,0.704,1.156,1.013,1.86,0.69
			c0.704-0.323,1.013-1.156,0.69-1.86l0,0l-246.6-537.939c-0.307-0.628-1.065-0.887-1.693-0.58
			C1061.642,998.217,1061.375,998.935,1061.64,999.555z"/>
		<path style="fill:#007AFF;fill-opacity:0.7532;" d="M235.685,1294.93l74.9-43.59c0.668-0.41,0.878-1.284,0.468-1.952
			c-0.398-0.649-1.237-0.869-1.901-0.498l-74.733,43.88c-0.577,0.384-0.733,1.162-0.349,1.739
			C234.423,1295.039,235.118,1295.221,235.685,1294.93z"/>
		<path style="fill:#007AFF;fill-opacity:0.6051;" d="M398.542,1453.13l69.942,486.59c0.105,0.73,0.782,1.237,1.512,1.132
			c0.73-0.105,1.237-0.782,1.132-1.512l0,0l-69.946-486.59c-0.105-0.729-0.781-1.235-1.51-1.13S398.437,1452.401,398.542,1453.13z"
			/>
		<path style="fill:#007AFF;" d="M663.842,2387l43.765-352.21c0.088-0.706-0.412-1.349-1.117-1.438
			c-0.706-0.088-1.349,0.412-1.438,1.117l-43.985,352.19c-0.076,0.769,0.486,1.453,1.254,1.529
			C663.064,2388.262,663.734,2387.739,663.842,2387z"/>
		<path style="fill:#007AFF;fill-opacity:0.0672;" d="M1368.59,1561.85L935.38,1760.7c-0.739,0.401-1.014,1.325-0.613,2.065
			c0.365,0.673,1.172,0.97,1.886,0.695l432.937-199.43c0.597-0.288,0.847-1.005,0.559-1.602
			C1369.869,1561.848,1369.181,1561.593,1368.59,1561.85z"/>
		<path style="fill:#007AFF;fill-opacity:0.722;" d="M-163.71,1777.33l470.887,175.43c0.679,0.229,1.415-0.135,1.644-0.814
			c0.219-0.649-0.104-1.357-0.738-1.616l-470.82-175.61c-0.721-0.269-1.523,0.098-1.792,0.818
			C-164.797,1776.259-164.431,1777.061-163.71,1777.33L-163.71,1777.33z"/>
		<path style="fill:#007AFF;fill-opacity:0.6751;" d="M1308.16,1536.16l-213.92,277.14c-0.439,0.566-0.336,1.381,0.23,1.82
			c0.566,0.439,1.381,0.336,1.82-0.23l214.09-277.01c0.475-0.613,0.363-1.495-0.25-1.97S1308.635,1535.547,1308.16,1536.16
			L1308.16,1536.16z"/>
		<path style="fill:#007AFF;fill-opacity:0.4559;" d="M-485.353,1945.32l629.786-150.65c0.665-0.159,1.076-0.827,0.917-1.493
			s-0.827-1.076-1.492-0.917l-629.902,150.16c-0.801,0.191-1.295,0.995-1.104,1.795
			C-486.958,1945.016-486.154,1945.511-485.353,1945.32z"/>
		<path style="fill:#007AFF;fill-opacity:0.834;" d="M369.508,2165.35l150.646-56.78c0.635-0.283,0.919-1.026,0.637-1.661
			c-0.259-0.582-0.913-0.878-1.522-0.689l-150.788,56.39c-0.757,0.284-1.14,1.127-0.857,1.884S368.751,2165.634,369.508,2165.35
			L369.508,2165.35z"/>
		<path style="fill:#007AFF;fill-opacity:0.8441;" d="M1308.16,1536.16l-203.97,261.08c-0.43,0.59-0.3,1.417,0.29,1.847
			c0.561,0.409,1.343,0.314,1.79-0.217l204.1-260.98c0.478-0.61,0.37-1.492-0.24-1.97S1308.638,1535.55,1308.16,1536.16
			L1308.16,1536.16z"/>
		<path style="fill:#007AFF;fill-opacity:0.2868;" d="M1061.92,999.946l271.11,257.574c0.625,0.525,1.557,0.444,2.082-0.181
			c0.481-0.572,0.458-1.413-0.052-1.959l-271.4-257.27c-0.522-0.465-1.322-0.418-1.786,0.104
			C1061.429,998.713,1061.45,999.471,1061.92,999.946z"/>
		<path style="fill:#007AFF;fill-opacity:0.6257;" d="M-247.197,1327.76l482.333-32.66c0.688-0.075,1.186-0.694,1.111-1.382
			c-0.071-0.649-0.627-1.135-1.279-1.118l-482.366,32.17c-0.824,0.076-1.431,0.806-1.355,1.63
			C-248.68,1327.196-247.995,1327.794-247.197,1327.76z"/>
		<path style="fill:#007AFF;fill-opacity:0.6465;" d="M663.738,2386.28L471.033,1939c-0.293-0.677-1.079-0.989-1.757-0.697
			c-0.677,0.293-0.989,1.079-0.697,1.757l192.59,447.32c0.336,0.695,1.172,0.987,1.867,0.651
			C663.688,2387.716,663.992,2386.957,663.738,2386.28z"/>
		<path style="fill:#007AFF;fill-opacity:0.9659;" d="M369.518,2165.34l337.272-129.51c0.648-0.293,0.935-1.056,0.642-1.704
			c-0.269-0.595-0.941-0.894-1.563-0.696l-337.397,129.19c-0.732,0.34-1.049,1.208-0.709,1.94
			C368.071,2165.222,368.82,2165.555,369.518,2165.34z"/>
		<path style="fill:#007AFF;fill-opacity:0.8594;" d="M306.383,1951.91l61.209,212.47c0.236,0.771,1.053,1.205,1.824,0.969
			c0.754-0.231,1.188-1.018,0.982-1.779l-61.522-212.38c-0.199-0.688-0.918-1.085-1.607-0.886
			C306.581,1950.502,306.184,1951.222,306.383,1951.91L306.383,1951.91z"/>
		<path style="fill:#007AFF;" d="M401.081,1452.4l-89.915-202.86c-0.331-0.71-1.176-1.018-1.886-0.687
			c-0.691,0.322-1.004,1.133-0.709,1.836l90.072,202.79c0.305,0.67,1.096,0.966,1.766,0.661
			C401.069,1453.84,401.368,1453.066,401.081,1452.4z"/>
		<path style="fill:#007AFF;fill-opacity:0.7206;" d="M1310.32,1536.09l-296.11-334.42c-0.497-0.561-1.354-0.612-1.915-0.115
			c-0.56,0.497-0.612,1.354-0.115,1.915l0,0l296.04,334.48c0.514,0.58,1.4,0.634,1.98,0.12S1310.834,1536.67,1310.32,1536.09z"/>
		<path style="fill:#007AFF;fill-opacity:0.6003;" d="M-111.796,1758.3l418.879,194.42c0.662,0.273,1.421-0.042,1.694-0.705
			c0.256-0.621-0.004-1.335-0.6-1.645l-418.712-194.78c-0.767-0.309-1.639,0.063-1.947,0.83
			C-112.768,1757.13-112.472,1757.941-111.796,1758.3z"/>
		<path style="fill:#007AFF;fill-opacity:0.1057;" d="M1964.3,1952.53l13.58,435.01c0.074,0.877,0.844,1.528,1.721,1.454
			c0.812-0.069,1.442-0.739,1.459-1.554l-14.29-434.99c-0.022-0.682-0.593-1.217-1.275-1.195S1964.278,1951.848,1964.3,1952.53z"/>
		<path style="fill:#007AFF;" d="M370.327,2164.58l100.697-224.5c0.304-0.673,0.005-1.464-0.668-1.768
			c-0.673-0.304-1.464-0.005-1.768,0.668l-100.926,224.4c-0.331,0.736-0.004,1.601,0.732,1.933
			C369.13,2165.644,369.996,2165.316,370.327,2164.58L370.327,2164.58z"/>
		<path style="fill:#007AFF;fill-opacity:0.7549;" d="M1095.67,1812.86l-159.181-52.23c-0.801-0.261-1.662,0.176-1.923,0.977
			c-0.261,0.801,0.176,1.662,0.977,1.923l0,0l159.317,51.8c0.682,0.224,1.416-0.148,1.64-0.83S1096.352,1813.084,1095.67,1812.86z"
			/>
		<path style="fill:#007AFF;fill-opacity:0.6618;" d="M-110.401,1758.23l510.945-304.14c0.621-0.396,0.803-1.22,0.407-1.841
			c-0.379-0.594-1.155-0.791-1.771-0.449l-511.111,303.86c-0.693,0.451-0.889,1.378-0.438,2.071
			C-111.944,1758.385-111.087,1758.602-110.401,1758.23z"/>
		<path style="fill:#007AFF;fill-opacity:0.5169;" d="M499.956,2430.23l207.513-395c0.331-0.629,0.09-1.408-0.539-1.74
			c-0.629-0.331-1.408-0.09-1.74,0.54l-208.009,394.74c-0.385,0.776-0.069,1.717,0.707,2.102
			C498.638,2431.244,499.549,2430.962,499.956,2430.23z"/>
		<path style="fill:#007AFF;fill-opacity:0.7957;" d="M1012.97,1203.91l320.83,53.99c0.811,0.093,1.543-0.489,1.636-1.299
			c0.086-0.751-0.408-1.446-1.146-1.611l-320.87-53.75c-0.745-0.08-1.413,0.46-1.493,1.204
			C1011.854,1203.126,1012.302,1203.755,1012.97,1203.91z"/>
		<path style="fill:#007AFF;fill-opacity:0.9238;" d="M1105.51,1796.76l-169.177-36.17c-0.823-0.175-1.632,0.351-1.807,1.173
			s0.351,1.632,1.174,1.807l169.26,35.78c0.715,0.152,1.418-0.305,1.57-1.02C1106.682,1797.615,1106.225,1796.912,1105.51,1796.76z"
			/>
		<path style="fill:#007AFF;fill-opacity:0.0916;" d="M1604.78,2070.52l373.66,318.18c0.709,0.521,1.706,0.37,2.227-0.339
			c0.47-0.638,0.399-1.525-0.167-2.081l-374.06-317.7c-0.553-0.438-1.356-0.346-1.795,0.207
			C1604.23,2069.311,1604.288,2070.067,1604.78,2070.52z"/>
		<path style="fill:#007AFF;fill-opacity:0.1574;" d="M1062.71,997.765l-500.444,28.555c-0.886,0.105-1.519,0.908-1.414,1.795
			c0.096,0.812,0.784,1.424,1.601,1.426l500.407-29.25c0.696-0.064,1.208-0.68,1.144-1.376
			C1063.943,998.25,1063.377,997.747,1062.71,997.765z"/>
		<path style="fill:#007AFF;fill-opacity:0.5391;" d="M846.684,2047.44l249.466-232.4c0.499-0.513,0.487-1.334-0.026-1.833
			c-0.479-0.466-1.235-0.491-1.744-0.057l-249.863,231.96c-0.643,0.598-0.68,1.605-0.082,2.248
			C845.034,2048.002,846.041,2048.038,846.684,2047.44z"/>
		<path style="fill:#007AFF;fill-opacity:0.4159;" d="M1011.85,1202.39l-77.342,559.48c-0.116,0.833,0.465,1.603,1.298,1.719
			c0.833,0.116,1.603-0.465,1.719-1.298l0,0l77.015-559.53c0.102-0.743-0.417-1.428-1.16-1.53
			C1012.637,1201.128,1011.952,1201.647,1011.85,1202.39z"/>
		<path style="fill:#007AFF;" d="M1310.67,1537.14l24.85-280.56c0.072-0.815-0.53-1.533-1.345-1.605
			c-0.815-0.072-1.533,0.53-1.605,1.345l0,0l-24.7,280.58c-0.066,0.773,0.507,1.454,1.28,1.52S1310.604,1537.913,1310.67,1537.14z"
			/>
		<path style="fill:#007AFF;fill-opacity:0.4035;" d="M-3.184,702.834l311.819,547.986c0.414,0.666,1.29,0.869,1.955,0.455
			c0.627-0.391,0.85-1.197,0.512-1.854L-0.634,701.384c-0.408-0.699-1.306-0.936-2.006-0.527
			C-3.329,701.259-3.57,702.137-3.184,702.834z"/>
		<path style="fill:#007AFF;fill-opacity:0.4501;" d="M500.134,2429.4l-28.995-489.95c-0.052-0.736-0.69-1.29-1.426-1.238
			c-0.725,0.051-1.276,0.672-1.24,1.398l28.53,489.98c0.052,0.865,0.796,1.523,1.661,1.47
			C499.528,2431.008,500.186,2430.264,500.134,2429.4z"/>
		<path style="fill:#007AFF;fill-opacity:0.6664;" d="M846.7,2047.42l259.45-248.41c0.527-0.505,0.545-1.343,0.04-1.87
			c-0.505-0.527-1.343-0.545-1.87-0.04l0,0l-259.819,248.02c-0.635,0.607-0.658,1.614-0.05,2.25
			C845.058,2048.005,846.065,2048.027,846.7,2047.42z"/>
		<path style="fill:#007AFF;fill-opacity:0.7471;" d="M-247.095,1327.75l557.156-76.22c0.779-0.106,1.324-0.824,1.217-1.603
			c-0.106-0.779-0.824-1.324-1.603-1.218l0,0l-557.177,76.07c-0.819,0.118-1.388,0.877-1.271,1.697
			C-248.655,1327.288-247.908,1327.856-247.095,1327.75z"/>
		<path style="fill:#007AFF;fill-opacity:0.9148;" d="M1308.55,1535.82l-373.32,224.96c-0.721,0.434-0.953,1.371-0.518,2.091
			c0.434,0.721,1.371,0.953,2.091,0.519l0,0l373.187-225.17c0.639-0.438,0.802-1.31,0.364-1.949
			C1309.953,1535.686,1309.179,1535.493,1308.55,1535.82z"/>
		<path style="fill:#007AFF;fill-opacity:0.6062;" d="M1012.67,1201.33l-470.901,200.59c-0.791,0.381-1.123,1.331-0.742,2.122
			c0.357,0.74,1.219,1.087,1.989,0.798l470.714-201.02c0.667-0.34,0.933-1.157,0.593-1.824
			C1014.015,1201.392,1013.31,1201.108,1012.67,1201.33z"/>
		<path style="fill:#007AFF;fill-opacity:0.516;" d="M399.247,1451.76l-112.489,58.21c-0.778,0.455-1.04,1.454-0.586,2.232
			c0.424,0.725,1.329,1.01,2.092,0.658l112.214-58.73c0.654-0.34,0.909-1.146,0.569-1.801
			C400.708,1451.675,399.901,1451.42,399.247,1451.76z"/>
		<path style="fill:#007AFF;fill-opacity:0.6462;" d="M891.194,1505.79l123.256-302.7c0.284-0.693-0.047-1.486-0.74-1.77
			c-0.693-0.284-1.486,0.047-1.77,0.74l-123.729,302.51c-0.337,0.824,0.058,1.765,0.881,2.102
			C889.916,1507.008,890.857,1506.614,891.194,1505.79z"/>
		<path style="fill:#007AFF;fill-opacity:0.5607;" d="M561.776,1029.44l450.934,174.4c0.699,0.271,1.484-0.076,1.755-0.775
			c0.271-0.699-0.076-1.484-0.775-1.755l0,0l-450.747-174.89c-0.834-0.322-1.771,0.093-2.094,0.927
			C560.527,1028.18,560.942,1029.118,561.776,1029.44L561.776,1029.44z"/>
		<path style="fill:#007AFF;fill-opacity:0.3573;" d="M846.777,2047.34l463.533-509.37c0.522-0.574,0.479-1.463-0.095-1.985
			c-0.574-0.522-1.463-0.479-1.985,0.095l0,0L844.424,2045.2c-0.574,0.665-0.501,1.67,0.164,2.244
			C845.229,2047.997,846.191,2047.952,846.777,2047.34z"/>
		<path style="fill:#007AFF;fill-opacity:0.2514;" d="M185.308,611.879l123.167,638.511c0.153,0.769,0.9,1.268,1.669,1.115
			c0.764-0.152,1.263-0.89,1.118-1.656L188.419,611.279c-0.184-0.856-1.027-1.4-1.882-1.216
			C185.707,610.241,185.165,611.042,185.308,611.879z"/>
		<path style="fill:#007AFF;fill-opacity:0.7637;" d="M1309.38,1535.62l-419.556-32.05c-0.889-0.033-1.636,0.661-1.669,1.55
			c-0.031,0.841,0.59,1.564,1.426,1.66l419.579,31.64c0.773,0.061,1.449-0.517,1.51-1.29S1310.153,1535.681,1309.38,1535.62z"/>
		<path style="fill:#007AFF;fill-opacity:0.6934;" d="M309.087,1251.3l232.431,153.41c0.734,0.483,1.721,0.279,2.204-0.455
			c0.483-0.734,0.279-1.721-0.455-2.204l0,0L310.65,1248.93c-0.655-0.432-1.535-0.251-1.966,0.403
			C308.252,1249.988,308.433,1250.868,309.087,1251.3L309.087,1251.3z"/>
		<path style="fill:#007AFF;fill-opacity:0.4229;" d="M1332.88,1255.53l-398.06,505.61c-0.492,0.682-0.337,1.634,0.345,2.126
			c0.643,0.463,1.533,0.356,2.048-0.246l397.997-505.66c0.505-0.643,0.393-1.575-0.25-2.08
			C1334.317,1254.775,1333.385,1254.887,1332.88,1255.53z"/>
		<path style="fill:#007AFF;fill-opacity:0.4758;" d="M310.806,1251.18l252.621-222.04c0.638-0.623,0.651-1.646,0.027-2.285
			c-0.579-0.594-1.514-0.652-2.162-0.135l-252.361,222.33c-0.573,0.535-0.605,1.433-0.07,2.006
			C309.374,1251.607,310.227,1251.661,310.806,1251.18z"/>
		<path style="fill:#007AFF;fill-opacity:0.8111;" d="M308.454,1250l-22.569,261.27c-0.077,0.898,0.588,1.688,1.485,1.766
			c0.898,0.077,1.688-0.588,1.766-1.485l22.147-261.31c0.066-0.781-0.513-1.468-1.294-1.535
			C309.207,1248.639,308.52,1249.219,308.454,1250L308.454,1250z"/>
		<path style="fill:#007AFF;" d="M-1.275,703.431l188.824-90.423c0.789-0.379,1.122-1.325,0.743-2.115s-1.325-1.122-2.115-0.743
			L-2.543,700.786c-0.73,0.35-1.039,1.226-0.688,1.957C-2.881,703.473-2.005,703.781-1.275,703.431z"/>
		<path style="fill:#007AFF;fill-opacity:0.7876;" d="M1308.22,1536.09l-139.36,155.35c-0.6,0.71-0.511,1.771,0.199,2.371
			c0.683,0.577,1.698,0.52,2.311-0.131l138.94-155.72c0.516-0.577,0.467-1.464-0.11-1.98
			C1309.623,1535.464,1308.736,1535.513,1308.22,1536.09L1308.22,1536.09z"/>
		<path style="fill:#007AFF;fill-opacity:0.623;" d="M941.244,1777.81l368.786-239.61c0.623-0.459,0.756-1.337,0.297-1.96
			c-0.42-0.57-1.199-0.737-1.817-0.39l-369.102,239.13c-0.773,0.52-0.979,1.568-0.459,2.341
			C939.456,1778.077,940.472,1778.293,941.244,1777.81z"/>
		<path style="fill:#007AFF;fill-opacity:0.7879;" d="M890.489,1506.58l444.281-248.84c0.712-0.4,0.965-1.303,0.565-2.015
			s-1.303-0.965-2.015-0.565l0,0l-444.404,248.61c-0.763,0.457-1.011,1.447-0.553,2.21
			C888.801,1506.711,889.733,1506.974,890.489,1506.58z"/>
		<path style="fill:#007AFF;fill-opacity:0.7203;" d="M541.322,1404.55l393.669,358.66c0.638,0.548,1.599,0.476,2.148-0.162
			c0.526-0.612,0.484-1.527-0.097-2.088L543.463,1402.2c-0.649-0.591-1.654-0.544-2.246,0.104
			C540.626,1402.953,540.673,1403.959,541.322,1404.55L541.322,1404.55z"/>
		<path style="fill:#007AFF;" d="M847.117,2046.75l90.351-284.21c0.24-0.806-0.219-1.654-1.025-1.894
			c-0.786-0.234-1.617,0.197-1.878,0.974l-90.48,284.17c-0.241,0.845,0.249,1.725,1.093,1.966
			C845.989,2047.987,846.839,2047.546,847.117,2046.75z"/>
		<path style="fill:#007AFF;" d="M888.117,1505.46l46.401,256.89c0.164,0.825,0.966,1.36,1.791,1.196
			c0.803-0.16,1.336-0.927,1.206-1.736l-46.227-256.92c-0.157-0.876-0.995-1.458-1.871-1.301
			C888.542,1503.747,887.96,1504.584,888.117,1505.46L888.117,1505.46z"/>
		<path style="fill:#007AFF;fill-opacity:0.7392;" d="M1171.69,1693.15l163.74-436.18c0.287-0.765-0.1-1.618-0.865-1.905
			c-0.765-0.287-1.618,0.1-1.905,0.865l-164.12,436.04c-0.297,0.88,0.175,1.835,1.056,2.133
			C1170.436,1694.387,1171.352,1693.97,1171.69,1693.15z"/>
		<path style="fill:#007AFF;fill-opacity:0.4361;" d="M941.671,1777.41l393.549-520.07c0.477-0.662,0.327-1.586-0.336-2.062
			c-0.637-0.459-1.522-0.339-2.014,0.272l-393.889,519.82c-0.563,0.743-0.418,1.802,0.325,2.365
			C940.049,1778.298,941.108,1778.153,941.671,1777.41z"/>
		<path style="fill:#007AFF;fill-opacity:0.6975;" d="M844.421,2045.2l-347.015,383.24c-0.583,0.642-0.535,1.635,0.107,2.218
			c0.642,0.583,1.635,0.535,2.217-0.107l347.049-383.21c0.591-0.651,0.542-1.659-0.11-2.25
			C846.019,2044.5,845.012,2044.549,844.421,2045.2L844.421,2045.2z"/>
		<path style="fill:#007AFF;fill-opacity:0.9623;" d="M1169.63,1690.94l-234.047,69.68c-0.806,0.239-1.266,1.087-1.027,1.894
			c0.239,0.806,1.087,1.266,1.894,1.026l234.14-69.37c0.892-0.265,1.4-1.203,1.135-2.095
			C1171.46,1691.183,1170.522,1690.675,1169.63,1690.94L1169.63,1690.94z"/>
		<path style="fill:#007AFF;" d="M890.156,1503.63L542.84,1401.85c-0.842-0.247-1.725,0.236-1.972,1.078s0.236,1.725,1.078,1.972
			l347.303,101.82c0.861,0.226,1.741-0.289,1.967-1.149C891.432,1504.745,890.967,1503.894,890.156,1503.63z"/>
		<path style="fill:#007AFF;fill-opacity:0.6083;" d="M185.687,612.64l375.473,416.37c0.626,0.636,1.649,0.645,2.285,0.019
			c0.597-0.587,0.646-1.533,0.114-2.179L188.04,610.518c-0.598-0.639-1.601-0.672-2.24-0.074
			C185.178,611.026,185.128,611.997,185.687,612.64z"/>
		<path style="fill:#007AFF;" d="M941.941,1775.91l-4.466-14.27c-0.243-0.806-1.093-1.261-1.898-1.019
			c-0.805,0.243-1.261,1.093-1.018,1.899l4.152,14.36c0.283,0.888,1.232,1.378,2.12,1.095
			C941.696,1777.699,942.188,1776.785,941.941,1775.91z"/>
		<path style="fill:#007AFF;fill-opacity:0.6884;" d="M847.186,2046.4l44.122-541.09c0.063-0.887-0.606-1.658-1.493-1.72
			c-0.875-0.062-1.638,0.587-1.718,1.46l-44.082,541.09c-0.068,0.876,0.588,1.641,1.464,1.708
			C846.349,2047.915,847.11,2047.269,847.186,2046.4z"/>
		<path style="fill:#007AFF;" d="M560.746,1027.84l-19.94,375.46c-0.031,0.877,0.655,1.613,1.532,1.644
			c0.858,0.03,1.586-0.627,1.642-1.484l19.993-375.45c0.047-0.891-0.637-1.652-1.529-1.699
			C561.553,1026.265,560.793,1026.949,560.746,1027.84z"/>
		<path style="fill:#007AFF;" d="M288.147,1512.92l254.866-108.08c0.786-0.391,1.106-1.345,0.716-2.13
			c-0.358-0.721-1.198-1.06-1.957-0.789l-254.898,107.99c-0.831,0.352-1.22,1.31-0.868,2.141S287.316,1513.272,288.147,1512.92
			L288.147,1512.92z"/>
		<path style="fill:#007AFF;fill-opacity:0.6434;" d="M891.031,1504.27l-327.339-477.26c-0.505-0.736-1.512-0.923-2.248-0.418
			c-0.736,0.505-0.923,1.512-0.417,2.248l327.347,477.25c0.522,0.72,1.529,0.881,2.25,0.359
			C891.317,1505.946,891.496,1504.989,891.031,1504.27z"/>
		<path style="fill:#007AFF;fill-opacity:0.7199;" d="M288.929,1512.22l274.835-483.49c0.442-0.776,0.171-1.763-0.604-2.204
			s-1.763-0.171-2.204,0.604l-274.862,483.48c-0.42,0.797-0.115,1.784,0.682,2.204
			C287.537,1513.216,288.48,1512.956,288.929,1512.22z"/>
		<path style="fill:#007AFF;fill-opacity:0.6844;" d="M846.773,2047.35l324.577-353.65c0.63-0.685,0.585-1.75-0.1-2.38
			c-0.685-0.63-1.75-0.585-2.38,0.1L844.428,2045.2c-0.587,0.654-0.533,1.659,0.12,2.247
			C845.193,2048.025,846.181,2047.982,846.773,2047.35z"/>
		<path style="fill:#007AFF;fill-opacity:0.606;" d="M941.479,1775.16l-398-372.94c-0.641-0.6-1.647-0.567-2.247,0.074
			c-0.6,0.641-0.567,1.646,0.074,2.246l397.866,373.08c0.698,0.617,1.764,0.552,2.381-0.145
			C942.146,1776.805,942.113,1775.79,941.479,1775.16z"/>
		<path style="fill:#007AFF;" d="M938.734,1775.83L844.1,2045.75c-0.266,0.837,0.196,1.732,1.033,1.998
			c0.804,0.256,1.668-0.16,1.969-0.948l94.815-269.85c0.309-0.879-0.153-1.842-1.031-2.151
			C940.006,1774.489,939.043,1774.951,938.734,1775.83L938.734,1775.83z"/>
		<path style="fill:#007AFF;" d="M1171.05,1691.16l-280.453-187.32c-0.74-0.494-1.74-0.295-2.234,0.446
			c-0.494,0.74-0.295,1.74,0.445,2.234l0,0l280.372,187.44c0.773,0.516,1.819,0.308,2.335-0.465S1171.823,1691.676,1171.05,1691.16z
			"/>
		<path style="fill:#007AFF;" d="M941.984,1776.08l-50.698-271.2c-0.173-0.873-1.02-1.44-1.893-1.267
			c-0.859,0.17-1.425,0.995-1.274,1.857l50.548,271.23c0.171,0.916,1.052,1.52,1.969,1.349
			C941.551,1777.877,942.155,1776.996,941.984,1776.08z"/>
		<path style="fill:#007AFF;" d="M67.811,1430.98l474.668-26.01c0.878-0.048,1.551-0.798,1.503-1.676
			c-0.048-0.878-0.798-1.551-1.676-1.504l-474.687,25.67c-0.97,0.087-1.686,0.944-1.599,1.914
			C66.103,1430.297,66.885,1430.998,67.811,1430.98z"/>
		<path style="fill:#007AFF;" d="M940.904,1777.98l229.786-83.84c0.86-0.353,1.271-1.336,0.918-2.195
			c-0.333-0.811-1.233-1.231-2.068-0.965l-229.792,83.83c-0.875,0.319-1.326,1.288-1.007,2.163
			C939.06,1777.848,940.029,1778.299,940.904,1777.98z"/>
		<path style="fill:#007AFF;fill-opacity:0.7069;" d="M68.826,1430.59l494.551-401.41c0.693-0.562,0.799-1.579,0.237-2.272
			c-0.562-0.693-1.579-0.8-2.273-0.238L66.604,1427.85c-0.757,0.614-0.872,1.724-0.259,2.481
			C66.959,1431.088,68.07,1431.204,68.826,1430.59z"/>
		<path style="fill:#007AFF;" d="M67.097,1430.87l219.842,82.07c0.861,0.266,1.774-0.216,2.04-1.077
			c0.244-0.79-0.141-1.638-0.897-1.973l-219.749-82.32c-0.927-0.3-1.921,0.208-2.221,1.135
			C65.831,1429.573,66.258,1430.512,67.097,1430.87z"/>
		<path style="fill:#007AFF;fill-opacity:0.8013;" d="M186.418,613.099l54.759,16.341c0.984,0.289,2.016-0.276,2.305-1.26
			c0.289-0.984-0.275-2.016-1.26-2.305l-54.913-15.817c-0.843-0.237-1.717,0.255-1.954,1.097
			C185.122,611.984,185.594,612.847,186.418,613.099z"/>
		<path style="fill:#007AFF;fill-opacity:0.5454;" d="M67.205,1427.53l-487.458,147.48c-0.874,0.281-1.354,1.217-1.073,2.09
			c0.274,0.852,1.174,1.334,2.035,1.09l487.516-147.28c0.933-0.282,1.461-1.267,1.18-2.2S68.138,1427.248,67.205,1427.53z"/>
		<path style="fill:#007AFF;fill-opacity:0.8323;" d="M563.62,1026.92L243.149,626.496c-0.642-0.801-1.811-0.929-2.611-0.288
			c-0.801,0.642-0.93,1.81-0.288,2.611l0,0l320.848,400.121c0.565,0.691,1.583,0.793,2.273,0.228
			C564.052,1028.611,564.163,1027.612,563.62,1026.92z"/>
		<path style="fill:#007AFF;fill-opacity:0.6555;" d="M-115.235,1648.58l658.179-243.71c0.816-0.323,1.216-1.246,0.893-2.062
			c-0.313-0.791-1.192-1.195-1.996-0.918l-658.392,243.13c-0.983,0.363-1.485,1.455-1.122,2.438
			C-117.31,1648.441-116.218,1648.943-115.235,1648.58L-115.235,1648.58z"/>
		<path style="fill:#007AFF;fill-opacity:0.6756;" d="M135.209,1847.88l408.352-443.42c0.596-0.645,0.557-1.652-0.089-2.248
			c-0.645-0.596-1.652-0.557-2.248,0.089l-408.817,443c-0.689,0.796-0.602,1.999,0.194,2.688
			C133.362,1848.646,134.505,1848.599,135.209,1847.88z"/>
		<path style="fill:#007AFF;fill-opacity:0.3594;" d="M846.03,2044.74l-711.707-199.99c-1.014-0.284-2.066,0.307-2.35,1.32
			c-0.284,1.013,0.306,2.066,1.32,2.35l711.878,199.38c0.856,0.199,1.711-0.334,1.909-1.19
			C847.266,2045.809,846.811,2044.998,846.03,2044.74z"/>
		<path style="fill:#007AFF;" d="M-115.289,1648.6l403.319-135.64c0.841-0.323,1.26-1.267,0.937-2.108
			c-0.304-0.79-1.161-1.216-1.975-0.982l-403.488,135.14c-0.973,0.387-1.449,1.49-1.062,2.463
			C-117.2,1648.373-116.222,1648.859-115.289,1648.6z"/>
		<path style="fill:#007AFF;fill-opacity:0.9393;" d="M135.54,1847.38l153.454-335.29c0.376-0.819,0.016-1.787-0.803-2.163
			c-0.819-0.376-1.787-0.016-2.163,0.803l-153.952,335.06c-0.439,0.957-0.02,2.088,0.937,2.527
			C133.97,1848.756,135.101,1848.337,135.54,1847.38L135.54,1847.38z"/>
		<path style="fill:#007AFF;fill-opacity:0.5408;" d="M-168.819,1633.94l711.698-229.05c0.818-0.319,1.222-1.24,0.904-2.058
			c-0.292-0.749-1.097-1.162-1.876-0.962l-711.929,228.33c-1.015,0.387-1.524,1.524-1.136,2.539
			C-170.8,1633.678-169.791,1634.196-168.819,1633.94z"/>
		<path style="fill:#007AFF;fill-opacity:0.4174;" d="M1815.42,1740.68l-645.18-49.8c-0.928-0.072-1.738,0.622-1.81,1.55
			c-0.072,0.928,0.622,1.738,1.55,1.81l645.15,50.15c1.025,0.08,1.92-0.685,2-1.71S1816.445,1740.76,1815.42,1740.68z"/>
		<path style="fill:#007AFF;fill-opacity:0.9143;" d="M-168.918,1633.97l456.845-120.98c0.858-0.275,1.33-1.194,1.055-2.052
			c-0.255-0.796-1.07-1.27-1.888-1.098l-457.017,120.33c-1.037,0.323-1.616,1.426-1.293,2.463
			C-170.912,1633.607-169.915,1634.188-168.918,1633.97z"/>
		<path style="fill:#007AFF;fill-opacity:0.4827;" d="M940.179,1774.71l-806.536,69.98c-1.041,0.151-1.763,1.118-1.612,2.159
			c0.139,0.958,0.974,1.659,1.942,1.631l806.499-70.41c0.926-0.105,1.591-0.941,1.485-1.867
			C941.856,1775.312,941.075,1774.656,940.179,1774.71z"/>
		<path style="fill:#007AFF;fill-opacity:0.5476;" d="M-217.79,2045.5l506.483-532.96c0.621-0.653,0.596-1.686-0.057-2.307
			s-1.686-0.596-2.307,0.057l-507.041,532.43c-0.768,0.807-0.736,2.083,0.071,2.851
			C-219.834,2046.339-218.558,2046.307-217.79,2045.5z"/>
		<path style="fill:#007AFF;" d="M-114.443,1648.03l183.506-217.68c0.595-0.771,0.453-1.879-0.318-2.474
			c-0.725-0.56-1.759-0.471-2.378,0.204l-183.709,217.5c-0.677,0.801-0.576,1.998,0.225,2.675
			C-116.317,1648.931-115.12,1648.831-114.443,1648.03z"/>
		<path style="fill:#007AFF;fill-opacity:0.2759;" d="M1420.31,2456.98l-248.6-764.94c-0.306-0.877-1.266-1.34-2.143-1.034
			c-0.851,0.297-1.316,1.211-1.057,2.074l248,765.13c0.406,1.028,1.569,1.531,2.597,1.125
			C1420.043,2458.965,1420.559,2457.956,1420.31,2456.98z"/>
		<path style="fill:#007AFF;" d="M135.69,1846.29l-66.233-417.35c-0.163-0.96-1.074-1.606-2.034-1.443
			c-0.944,0.161-1.588,1.045-1.45,1.993l65.953,417.39c0.183,1.036,1.171,1.728,2.207,1.545
			C135.142,1848.247,135.829,1847.304,135.69,1846.29z"/>
		<path style="fill:#007AFF;" d="M66.568,1427.88l-237.268,202.69c-0.826,0.706-0.923,1.948-0.217,2.774s1.948,0.923,2.774,0.217
			l237.004-203c0.732-0.643,0.805-1.757,0.162-2.489C68.393,1427.352,67.303,1427.267,66.568,1427.88z"/>
		<path style="fill:#007AFF;fill-opacity:0.6879;" d="M1171.11,1691.2l-233.174-170.8c-0.967-0.631-2.263-0.359-2.894,0.608
			c-0.584,0.895-0.399,2.085,0.428,2.762l233.65,170.15c0.751,0.55,1.806,0.386,2.355-0.365
			C1172.025,1692.804,1171.861,1691.75,1171.11,1691.2z"/>
		<path style="fill:#007AFF;fill-opacity:0.551;" d="M942.013,1776.37l-3.219-254.32c-0.017-1.155-0.966-2.078-2.121-2.061
			c-1.155,0.017-2.078,0.966-2.061,2.121l0,0l4.027,254.31c0.014,0.932,0.78,1.676,1.712,1.662
			C941.283,1778.068,942.027,1777.302,942.013,1776.37z"/>
		<path style="fill:#007AFF;fill-opacity:0.7172;" d="M66.117,1428.47l-287.195,614.78c-0.472,1.009-0.037,2.21,0.972,2.682
			s2.21,0.037,2.682-0.972l286.737-615c0.393-0.891-0.011-1.932-0.902-2.325C67.546,1427.253,66.534,1427.622,66.117,1428.47z"/>
		<path style="fill:#007AFF;fill-opacity:0.6691;" d="M-737.262,1750.2l805.626-319.34c0.906-0.359,1.349-1.384,0.991-2.289
			c-0.359-0.906-1.384-1.349-2.289-0.991l-805.825,318.84c-1.035,0.436-1.52,1.629-1.083,2.664
			C-739.419,1750.086-738.282,1750.578-737.262,1750.2z"/>
		<path style="fill:#007AFF;" d="M-117.078,1648.28l249.696,199.79c0.853,0.616,2.044,0.425,2.66-0.428
			c0.573-0.793,0.452-1.892-0.28-2.542l-249.706-199.78c-0.832-0.636-2.022-0.476-2.658,0.356
			C-117.981,1646.482-117.855,1647.629-117.078,1648.28z"/>
		<path style="fill:#007AFF;fill-opacity:0.4911;" d="M1813.65,1741.63l-396.99,714.99c-0.52,0.975-0.151,2.187,0.824,2.707
			c0.953,0.508,2.137,0.168,2.676-0.767l396.74-715.12c0.5-0.897,0.177-2.03-0.72-2.53
			C1815.282,1740.41,1814.15,1740.733,1813.65,1741.63L1813.65,1741.63z"/>
		<path style="fill:#007AFF;" d="M134.908,1845.03l-303.193-214.57c-0.904-0.602-2.125-0.358-2.728,0.546
			c-0.579,0.868-0.379,2.037,0.456,2.664l303.265,214.47c0.874,0.586,2.058,0.353,2.644-0.521
			C135.917,1846.775,135.722,1845.637,134.908,1845.03z"/>
		<path style="fill:#007AFF;" d="M132.878,1844.92l-353.113,197.43c-0.972,0.543-1.32,1.772-0.776,2.744
			c0.543,0.972,1.772,1.319,2.744,0.776l353.005-197.62c0.919-0.514,1.249-1.675,0.735-2.595
			C134.959,1844.735,133.798,1844.406,132.878,1844.92z"/>
		<path style="fill:#007AFF;fill-opacity:0.532;" d="M-738.238,1750.33l871.833,98.15c1.047,0.118,1.99-0.635,2.108-1.682
			s-0.635-1.99-1.682-2.108l-871.804-98.4c-1.118-0.1-2.106,0.725-2.206,1.844C-740.086,1749.216-739.315,1750.184-738.238,1750.33z
			"/>
		<path style="fill:#007AFF;fill-opacity:0.2319;" d="M1815.73,1740.73l-878.518-220.67c-1.133-0.221-2.232,0.518-2.453,1.651
			c-0.205,1.049,0.414,2.083,1.435,2.398l878.626,220.23c0.997,0.251,2.009-0.353,2.26-1.35S1816.727,1740.981,1815.73,1740.73z"/>
		<path style="fill:#007AFF;fill-opacity:0.8838;" d="M-117.673,1647.46l113.921,310.77c0.452,1.126,1.732,1.672,2.858,1.22
			c1.077-0.433,1.632-1.628,1.267-2.73l-114.485-310.57c-0.362-0.983-1.452-1.487-2.435-1.125
			C-117.531,1645.387-118.035,1646.477-117.673,1647.46z"/>
		<path style="fill:#007AFF;" d="M132.601,1845.11L-3.082,1955.78c-0.928,0.782-1.046,2.168-0.264,3.096
			c0.766,0.909,2.116,1.044,3.047,0.304l135.314-111.12c0.815-0.667,0.935-1.867,0.268-2.682
			C134.616,1844.563,133.416,1844.443,132.601,1845.11z"/>
		<path style="fill:#007AFF;fill-opacity:0.5893;" d="M282.938,773.957l-39.444-146.776c-0.275-0.988-1.3-1.566-2.288-1.291
			c-0.971,0.271-1.549,1.266-1.302,2.244l38.526,147.02c0.342,1.242,1.626,1.971,2.868,1.629
			C282.523,776.445,283.253,775.188,282.938,773.957z"/>
		<path style="fill:#007AFF;" d="M-171.169,1632.97l167.526,325.51c0.583,1.064,1.919,1.454,2.983,0.871
			c1.025-0.562,1.431-1.828,0.923-2.881l-167.935-325.3c-0.522-0.953-1.717-1.303-2.67-0.781
			C-171.261,1630.892-171.624,1632.027-171.169,1632.97z"/>
		<path style="fill:#007AFF;" d="M-218.505,2045.98l217.628-86.46c1.112-0.485,1.621-1.78,1.136-2.892
			c-0.463-1.062-1.672-1.582-2.762-1.188l-217.494,86.79c-1.036,0.412-1.541,1.585-1.129,2.621
			C-220.714,2045.886-219.54,2046.392-218.505,2045.98z"/>
		<path style="fill:#007AFF;fill-opacity:0.2938;" d="M935.823,1520.19L-2.615,1955.48c-1.102,0.511-1.581,1.818-1.07,2.92
			s1.818,1.581,2.92,1.07l938.349-435.49c1.028-0.526,1.434-1.786,0.908-2.814C937.993,1520.194,936.831,1519.769,935.823,1520.19z"
			/>
		<path style="fill:#007AFF;fill-opacity:0.3528;" d="M278.931,776.094l656.201,747.366c0.762,0.868,2.084,0.954,2.952,0.192
			c0.868-0.762,0.954-2.084,0.191-2.952l0,0L282.437,773.017c-0.85-0.968-2.323-1.064-3.292-0.215
			C278.177,773.652,278.081,775.126,278.931,776.094L278.931,776.094z"/>
		<polygon style="fill:#007AFF;fill-opacity:0.0626;" points="185.759,2169.78 519.712,2107.39 599.6,2043.74 		"/>
		<polygon style="fill:#007AFF;fill-opacity:0.0927;" points="3.517,2410.55 185.759,2169.78 205.539,2110.02 		"/>
		<polygon style="fill:#007AFF;fill-opacity:0.0927;" points="3.517,2410.55 185.759,2169.78 205.539,2110.02 		"/>
		<polygon style="fill:#007AFF;fill-opacity:0.0927;" points="3.517,2410.55 185.759,2169.78 205.539,2110.02 		"/>
		<polygon style="fill:#007AFF;fill-opacity:0.12;" points="489.49,1307.17 235.052,1293.85 378.116,1339.7 		"/>
		<polygon style="fill:#007AFF;fill-opacity:0.12;" points="489.49,1307.17 235.052,1293.85 378.116,1339.7 		"/>
		<polygon style="fill:#007AFF;fill-opacity:0.12;" points="489.49,1307.17 235.052,1293.85 378.116,1339.7 		"/>
		<polygon style="fill:#007AFF;fill-opacity:0.0282;" points="307.63,1951.55 144.145,1793.46 599.6,2043.74 		"/>
		<polygon style="fill:#007AFF;fill-opacity:0.1066;" points="519.712,2107.39 706.33,2034.63 599.6,2043.74 		"/>
		<polygon style="fill:#007AFF;fill-opacity:0.1066;" points="519.712,2107.39 706.33,2034.63 599.6,2043.74 		"/>
		<polygon style="fill:#007AFF;fill-opacity:0.042;" points="307.63,1951.55 185.759,2169.78 144.145,1793.46 		"/>
		<polygon style="fill:#007AFF;fill-opacity:0.0788;" points="399.862,1452.94 489.49,1307.17 235.052,1293.85 		"/>
		<polygon style="fill:#007AFF;fill-opacity:0.0679;" points="307.63,1951.55 469.806,1939.53 599.6,2043.74 		"/>
		<polygon style="fill:#007AFF;fill-opacity:0.093;" points="1095.27,1814.09 1369.09,1562.94 1105.23,1798.05 		"/>
		<polygon style="fill:#007AFF;fill-opacity:0.093;" points="1095.27,1814.09 1369.09,1562.94 1105.23,1798.05 		"/>
		<polygon style="fill:#007AFF;fill-opacity:0.0245;" points="662.454,2386.83 706.33,2034.63 599.6,2043.74 		"/>
		<polygon style="fill:#007AFF;fill-opacity:0.1029;" points="519.712,2107.39 706.33,2034.63 469.806,1939.53 		"/>
		<polygon style="fill:#007AFF;fill-opacity:0.1045;" points="307.63,1951.55 519.712,2107.39 469.806,1939.53 		"/>
		<polygon style="fill:#007AFF;fill-opacity:0.1045;" points="307.63,1951.55 519.712,2107.39 469.806,1939.53 		"/>
		<polygon style="fill:#007AFF;fill-opacity:0.0257;" points="1309.27,1537.02 1369.09,1562.94 1105.23,1798.05 		"/>
		<polygon style="fill:#007AFF;fill-opacity:0.0479;" points="-163.223,1776.03 307.63,1951.55 144.145,1793.46 		"/>
		<polygon style="fill:#007AFF;fill-opacity:0.0479;" points="-163.223,1776.03 307.63,1951.55 144.145,1793.46 		"/>
		<polygon style="fill:#007AFF;fill-opacity:0.0864;" points="307.63,1951.55 706.33,2034.63 469.806,1939.53 		"/>
		<polygon style="fill:#007AFF;fill-opacity:0.0775;" points="399.862,1452.94 309.869,1250.12 378.116,1339.7 		"/>
		<polygon style="fill:#007AFF;fill-opacity:0.0775;" points="399.862,1452.94 309.869,1250.12 378.116,1339.7 		"/>
		<polygon style="fill:#007AFF;fill-opacity:0.0775;" points="399.862,1452.94 309.869,1250.12 378.116,1339.7 		"/>
		<polygon style="fill:#007AFF;fill-opacity:0.0668;" points="662.454,2386.83 706.33,2034.63 972.576,2258.04 		"/>
		<polygon style="fill:#007AFF;fill-opacity:0.0573;" points="399.862,1452.94 235.052,1293.85 309.869,1250.12 		"/>
		<polygon style="fill:#007AFF;fill-opacity:0.0152;" points="368.995,2163.98 706.33,2034.63 972.576,2258.04 		"/>
		<polygon style="fill:#007AFF;fill-opacity:0.0742;" points="368.995,2163.98 519.712,2107.39 469.806,1939.53 		"/>
		<polygon style="fill:#007AFF;fill-opacity:0.0146;" points="1062.79,999.028 1013.2,1202.57 1334.04,1256.45 		"/>
		<polygon style="fill:#007AFF;fill-opacity:0.0874;" points="1095.27,1814.09 1105.23,1798.05 936.017,1762.08 		"/>
		<polygon style="fill:#007AFF;fill-opacity:0.0571;" points="662.454,2386.83 368.995,2163.98 706.33,2034.63 		"/>
		<polygon style="fill:#007AFF;fill-opacity:0.0571;" points="662.454,2386.83 368.995,2163.98 706.33,2034.63 		"/>
		<polygon style="fill:#007AFF;fill-opacity:0.0358;" points="1309.27,1537.02 1013.2,1202.57 1334.04,1256.45 		"/>
		<polygon style="fill:#007AFF;fill-opacity:0.0386;" points="1309.27,1537.02 1105.23,1798.05 936.017,1762.08 		"/>
		<polygon style="fill:#007AFF;fill-opacity:0.0467;" points="498.568,2429.5 368.995,2163.98 469.806,1939.53 		"/>
		<polygon style="fill:#007AFF;fill-opacity:0.0059;" points="-168.81,2191.99 307.63,1951.55 368.995,2163.98 		"/>
		<polygon style="fill:#007AFF;fill-opacity:0.025;" points="1309.27,1537.02 1334.04,1256.45 936.017,1762.08 		"/>
		<polygon style="fill:#007AFF;fill-opacity:0.038;" points="1309.27,1537.02 889.703,1505.18 1334.04,1256.45 		"/>
		<polygon style="fill:#007AFF;fill-opacity:0.0111;" points="-111.166,1756.94 -168.81,2191.99 368.995,2163.98 		"/>
		<polygon style="fill:#007AFF;fill-opacity:0.0375;" points="1309.27,1537.02 1170.11,1692.56 936.017,1762.08 		"/>
		<polygon style="fill:#007AFF;fill-opacity:0.037;" points="1170.11,1692.56 889.703,1505.18 1334.04,1256.45 		"/>
		<polygon style="fill:#007AFF;fill-opacity:0.1016;" points="940.326,1776.39 845.601,2046.27 936.017,1762.08 		"/>
		<polygon style="fill:#007AFF;fill-opacity:0.1016;" points="940.326,1776.39 845.601,2046.27 936.017,1762.08 		"/>
		<polygon style="fill:#007AFF;fill-opacity:0.1016;" points="940.326,1776.39 845.601,2046.27 936.017,1762.08 		"/>
		<polygon style="fill:#007AFF;fill-opacity:0.0764;" points="1170.11,1692.56 889.703,1505.18 936.017,1762.08 		"/>
		<polygon style="fill:#007AFF;fill-opacity:0.1088;" points="940.326,1776.39 889.703,1505.18 936.017,1762.08 		"/>
		<polygon style="fill:#007AFF;fill-opacity:0.0671;" points="889.703,1505.18 287.511,1511.41 542.393,1403.38 		"/>
		<polygon style="fill:#007AFF;fill-opacity:0.0268;" points="1170.11,1692.56 889.703,1505.18 542.393,1403.38 		"/>
		<polygon style="fill:#007AFF;fill-opacity:0.0495;" points="67.715,1429.22 562.359,1027.93 542.393,1403.38 		"/>
		<polygon style="fill:#007AFF;fill-opacity:0.1136;" points="67.715,1429.22 287.511,1511.41 542.393,1403.38 		"/>
		<polygon style="fill:#007AFF;fill-opacity:0.1134;" points="940.326,1776.39 1170.11,1692.56 889.703,1505.18 		"/>
		<polygon style="fill:#007AFF;fill-opacity:0.1134;" points="940.326,1776.39 1170.11,1692.56 889.703,1505.18 		"/>
		<polygon style="fill:#007AFF;fill-opacity:0.0496;" points="67.715,1429.22 287.511,1511.41 562.359,1027.93 		"/>
		<polygon style="fill:#007AFF;fill-opacity:0.0118;" points="186.864,611.579 562.359,1027.93 241.699,627.657 		"/>
		<polygon style="fill:#007AFF;fill-opacity:0.116;" points="-115.893,1646.8 67.715,1429.22 287.511,1511.41 		"/>
		<polygon style="fill:#007AFF;fill-opacity:0.0818;" points="133.808,1846.59 67.715,1429.22 287.511,1511.41 		"/>
		<polygon style="fill:#007AFF;fill-opacity:0.0536;" points="67.715,1429.22 -169.421,1632.07 542.393,1403.38 		"/>
		<polygon style="fill:#007AFF;fill-opacity:0.0804;" points="-115.893,1646.8 133.808,1846.59 287.511,1511.41 		"/>
		<polygon style="fill:#007AFF;fill-opacity:0.0222;" points="-115.893,1646.8 -738.011,1748.31 287.511,1511.41 		"/>
		<polygon style="fill:#007AFF;fill-opacity:0.12;" points="-115.893,1646.8 67.715,1429.22 -169.421,1632.07 		"/>
		<polygon style="fill:#007AFF;fill-opacity:0.12;" points="-115.893,1646.8 67.715,1429.22 -169.421,1632.07 		"/>
		<polygon style="fill:#007AFF;fill-opacity:0.0646;" points="133.808,1846.59 67.715,1429.22 -219.251,2044.11 		"/>
		<polygon style="fill:#007AFF;fill-opacity:0.1172;" points="-115.893,1646.8 133.808,1846.59 -219.251,2044.11 		"/>
		<polygon style="fill:#007AFF;fill-opacity:0.1172;" points="-115.893,1646.8 133.808,1846.59 -219.251,2044.11 		"/>
		<polygon style="fill:#007AFF;fill-opacity:0.1172;" points="-115.893,1646.8 133.808,1846.59 -219.251,2044.11 		"/>
		<polygon style="fill:#007AFF;fill-opacity:0.1147;" points="133.808,1846.59 -219.251,2044.11 -169.421,1632.07 		"/>
		<polygon style="fill:#007AFF;fill-opacity:0.0928;" points="133.808,1846.59 -169.421,1632.07 -1.691,1957.48 		"/>
		<polygon style="fill:#007AFF;fill-opacity:0.1041;" points="133.808,1846.59 -219.251,2044.11 -1.691,1957.48 		"/>
	</g>
</g>
</svg>
